<?xml version="1.0" encoding="UTF-8"?>
<svg id="Layer_1" data-name="Layer 1" xmlns="http://www.w3.org/2000/svg" viewBox="0 0 2771.31 2041.06">
  <defs>
    <style>
      .cls-1 {
        fill: #000;
      }

      .cls-1, .cls-2 {
        stroke-width: 0px;
      }

      .cls-2 {
        fill: #ff78e2;
      }
    </style>
  </defs>
  <rect class="cls-2" x="1405.31" y="905.88" width="1366" height="1135.18"/>
  <path class="cls-1" d="M1730.23,1974.76c-.63-31.45,1.32-62.74,6.36-93.83,2.38-14.7,1.17-29.58.97-44.39-.11-7.7-1.42-14.83-4.85-22.02-4.13-8.64-10.33-14.24-18.31-18.88-12.57-7.32-25.54-4.73-34.47,6.63-13.25,16.85-24.38,34.93-34.97,53.56-10.66,18.75-24.27,35.6-40.29,50.3-16.34,14.99-36.75,21.37-57.46,26.91-16.23,4.34-32.64,5.12-49.48,3.11-15.59-1.86-27.99-9.63-39.74-18.63-7.63-5.85-9.39-15.56-11.66-24.56-5.72-22.72-6.78-45.69-4.49-68.96,1.52-15.52,4.01-30.8,9.43-45.45,8.74-23.61,16.04-47.81,28.31-69.98,15.84-28.61,33.92-55.72,56.74-79.24,10.13-10.44,21.51-19.75,32.9-28.85,9.13-7.3,17.64-15.3,27.1-22.23,26.49-19.44,53.82-37.6,83.08-52.52,26.73-13.63,55.33-21.77,85.53-22.01,15.07-.12,30.85.97,43.6,9.6,7.78,5.27,15.04,11.54,23.48,15.86,10.08,5.15,19.23,11.6,28.43,18.1,13.51,9.54,23.85,21.64,32.23,35.83,11.19,18.94,23.81,36.96,29.95,58.6,8.36,29.49,12.32,59.47,12.03,89.99-.21,21.84-.52,43.69-.56,65.53-.04,19.13-3.73,38-5.21,57.05-2.03,26.08-7.01,51.66-15.22,76.57-5.08,15.41-10.41,30.74-18.98,44.6-13.38,21.65-34.62,33.17-57.51,41.16-27.48,9.6-55.96,11-84.4,4-14.72-3.63-22.97-15.78-22.55-31.03.13-4.94.02-9.89.02-14.83h-.01ZM1461.65,1835.52c.24,3.59.5,7.18.71,10.77.15,2.49-.02,5.46,3.36,5.64,3.72.2,3.89-3.07,4.35-5.69,1.12-6.46.19-13.02.65-19.45,1.96-27.26,12.59-52.24,21.66-77.54,5.54-15.45,14.06-29.56,22.13-43.85,11.14-19.74,24.92-37.43,40.95-53.3,14.54-14.39,29.8-28.04,44.61-42.16,5.04-4.8,9.92-9.82,14.39-15.14,1.6-1.9,4.48-5.29,1.03-7.54-2.46-1.61-4.58,1.28-6.59,3.22-13.05,12.62-25.74,25.68-39.54,37.44-25.77,21.96-47.26,47.43-64.67,76.29-16.69,27.67-28.28,57.64-36.61,88.77-3.7,13.83-5.73,28.14-6.43,42.55h0ZM1777.3,1525.82c3.2,1.03,5.12-1.05,5.71-3.32.86-3.33-2.56-3.04-4.47-3.52-2.15-.54-4.46-.71-6.68-.62-29.44,1.27-58.11,5.84-84.97,18.93-11.51,5.61-23.78,9.69-34.05,17.67-1.58,1.23-3.93,2.39-3.06,4.67,1,2.61,3.72,2.33,5.87,1.57,3.59-1.27,7.08-2.82,10.56-4.38,11.87-5.32,22.68-12.96,35.49-16.22,24.94-6.33,49.41-15.1,75.6-14.79h0ZM1576.59,1910.89c1.59-.29,4.16.01,5.42-1.13,7.01-6.32,15.63-10.41,22.42-17.08,17.31-17,29.48-37.85,43.66-57.19,8.07-11,11.85-24.89,22.86-33.9.95-.78,1.45-1.89.71-2.95-.68-.99-1.88-1.08-3.05-.8-4.91,1.16-8.37,4.38-11.01,8.37-4.08,6.18-7.96,12.5-11.72,18.89-8.22,13.97-19.12,26.07-27.82,39.68-11.62,18.19-25.67,33.46-46.87,40.52-1.25.42-2.84.59-2.9,2.29-.08,2.09,1.65,2.44,3.21,2.71,1.54.27,3.12.37,5.11.59h-.02Z"/>
  <path class="cls-1" d="M2377.55,1561.92c-.47,21.56-1.39,43.09-4.82,64.46-3.39,21.1-16.53,33.48-35.8,39.88-14.49,4.81-29.41,8.31-44.05,12.69-17.45,5.23-31.41,15.23-40.89,31.07-2.48,4.13-3.26,8.84-4.88,13.26-.78,2.11-1.26,4.33-2.06,6.42-6.45,16.81-21.46,22.04-33.75,9.21-25.03-26.13-69.94-21.64-95.39-6.12-11.34,6.91-19.04,17.74-27.8,27.34-6.2,6.8-11.47,14.44-17.47,21.42-14.73,17.15-33.99,21.87-55.51,19.16-19.92-2.5-35.92-12.25-45.83-29.68-9.45-16.62-12.83-33.5-2.12-52.25,10.23-17.91,17.89-37.61,31.03-53.52,14.4-17.45,24.94-37.31,38.3-55.35,18.75-25.33,15.6-51.44-6.66-73.23-14.14-13.83-29.99-25.75-43.22-40.59-12.64-14.18-16.04-29.97-10.3-47.56,6.89-21.1,17.43-40.13,32.91-56.47,10.09-10.65,19.68-21.97,32.71-28.83,19.02-10.02,38.14-19.84,59.61-24.42,14.28-3.04,28.61-5.8,42.96-8.25,24.21-4.13,48.46-5.4,72.77,1.11,12.53,3.36,25.56,4.61,37.86,9.36,17.12,6.6,32.4,16.59,48.54,24.99,12.27,6.38,20.72,17.04,28.69,28.04,15.09,20.82,24.79,44.45,32.67,68.45,6.78,20.62,9.52,42.48,10.12,64.45.32,11.64,2.84,23.19,2.4,34.94l-.02.02ZM2348.1,1543.12c.15,4.31-1.08,11.99.68,19.57.46,2,.63,4.22,2.95,4.87,2.27.64,3.92-1.15,5.22-2.48,3.98-4.05,4.2-9.47,3.68-14.56-1.9-18.55-4.17-37.06-8.96-55.15-5.02-18.92-10.13-38.02-18.7-55.49-10.12-20.62-24.34-38.25-43.52-52.28-21.98-16.08-46.36-26.2-71.6-35.03-2.61-.91-6.23-2.43-7.66,1.31-1.33,3.5,2.05,5.29,4.62,6.43,5.73,2.56,11.99,4.07,17.45,7.06,15.19,8.31,30.67,16.29,44.96,26,16.71,11.35,32.31,24.14,41.74,43.07,4.41,8.86,8.27,17.9,12.34,26.89,11.01,24.35,16.97,49.69,16.79,79.76v.03ZM1977.19,1743.09c-.15,13.36,5.71,25.99,19.26,34.63,1.73,1.11,3.41,2.6,5.39.8,1.79-1.62,1.2-3.68.51-5.64-.85-2.43-2.75-4.08-4.44-5.86-9.47-9.96-15.56-21-11.02-35.29,1.43-4.49,2.93-8.99,4.89-13.25,5.24-11.4,10.76-22.68,16.14-34.02.97-2.04,2.24-4.68.11-6.18-2.27-1.61-4.69-.01-6.42,1.96-1.03,1.18-2.11,2.4-2.76,3.8-4.55,9.73-9.02,19.48-13.46,29.26-3.98,8.77-8.88,17.27-8.2,29.8h0ZM2027.8,1787.57c7.28-.89,14.44-1.83,19.68-7.59,1.22-1.34,3.43-3.03,1.77-5.11-1.25-1.56-3.37-.66-5.02.06-6.81,2.98-13.77,5.39-21.24,6.04-1.54.13-3.4.11-3.7,2.12-.34,2.32,1.59,3.05,3.29,3.56,1.7.51,3.5.63,5.22.92h0Z"/>
  <path class="cls-1" d="M1769.54,1126.55c11.21.29,22.35-1.35,33.65-.67,13.95.84,27.74,2.09,41.06,6.33,18.95,6.03,36.67,14.4,51.8,27.77,8.94,7.91,16.26,17,20.72,27.91,6.37,15.59,13.81,30.7,20.81,45.97,9.81,21.39,11.06,43.11,8.28,65.93-2.75,22.52-15.43,39.43-29.41,55.69-10.31,11.99-16.46,24.86-14.34,41.18,1.36,10.47,1.77,21.08.77,31.67-.34,3.54.2,7.27-3.03,9.97-.59.49-1.19,1.86-.92,2.35,3.92,7.22-2.13,8.1-6.34,10.3-15.9,8.29-31.13,3.22-43.81-5.61-19.85-13.84-41.08-24.08-63.9-31.18-14.67-4.56-30.19-5.4-45.41-5.78-20.87-.51-41.75.74-62.59,3.16-19.74,2.29-37.96,9.01-56.2,15.99-25.09,9.6-47.35,24.86-71.65,36.06-11.59,5.34-23.54,9.49-36.3,8.99-12.07-.48-23.87-2.17-32.66-12.74-10.69-12.85-17.72-26.73-19.04-43.68-.66-8.42-4.32-16.62-4.93-25.04-1.26-17.28,3.65-33.64,8.49-50.13,5.71-19.44,13.91-37.61,25.11-54.22,4.99-7.4,10.25-15.24,19.73-19.14,3.59-1.48,5.53-7.7,8.82-11.35,8.04-8.93,17.56-15.9,28.08-21.59,5.78-3.12,10.62-7.54,15.02-12.25,2.43-2.6,4.74-4.13,8.17-5.14,3.68-1.08,9.51,0,8.84-7.83-.22-2.55,5.59-5.91,8.99-8.41,6.15-4.52,12.58-8.52,19.6-11.77,6.25-2.9,12.04-6.97,17.63-11.09,15.38-11.34,33.57-17.18,50.09-26.18,18.7-10.18,38.92-15.07,58.99-20.57,11.59-3.18,23.44-6.84,35.88-4.9h0ZM1781.1,1134.91c-8.09,1.33-15.86,2.57-23.61,3.89-13.29,2.27-26.96,2.17-39.96,6.08-16.17,4.86-31.95,10.83-47.08,18.36-20.6,10.26-39,24.06-57.96,36.9-13.74,9.31-28.3,17.66-39.76,30.03-1.59,1.72-4.59,3.51-2.39,6.09,2.23,2.62,5.07.69,7.2-.94,3.03-2.32,5.61-5.27,8.76-7.39,29.42-19.82,58.49-40.13,89.91-56.85,17.51-9.32,36.02-15.05,55.32-18.43,16.81-2.94,33.39-7.26,50.46-8.77,2.98-.26,5.51-1.74,5.04-5.04-.46-3.22-3.48-3.68-5.94-3.93h0ZM1932.76,1276.12c1.21-10.32-1.16-20.71-4.06-30.84-5.91-20.65-14.04-40.35-28.51-56.74-1.53-1.73-2.94-5.51-6.32-3.26-3.49,2.32-2.74,5.51-1.01,8.92,3.79,7.46,8.41,14.4,13.53,20.92,13.45,17.11,17.7,36.91,18.3,58.05.34,12.18.4,24.26-2.01,36.28-.5,2.5-1.17,6.34,2.12,6.78,3.02.41,2.67-3.6,3.26-5.78,3.02-11.09,5.52-22.28,4.7-34.34h0ZM1884.21,1387.28c1.05,8.57,2.82,18.49,7.05,27.81.84,1.85,1.8,4,4.42,2.97,2.17-.86,1.69-2.92,1.36-4.69-.59-3.09-1.11-6.2-1.92-9.24-3.54-13.26-3.49-26.18,3.02-38.69,1.33-2.55,2.07-5.44,2.88-8.23.39-1.36-.09-2.73-1.46-3.44-1.8-.92-3.06.07-3.95,1.49-5.83,9.4-11.39,18.92-11.4,32.02h0Z"/>
  <path class="cls-1" d="M2175.36,1207.92c22.59.46,41.79-5.2,59.08-16.77,16.45-11.01,24.93-26.37,22.6-46.54-1.2-10.39-7.26-18.84-13.13-27.01-10.68-14.87-25.68-23.51-43.22-28.07-19.47-5.07-26.6-26.62-12.8-41.25,21.64-22.92,47.31-39.51,79.37-43.48,20.36-2.52,40.56-1.01,60.98,2.31,25.17,4.1,47.99,13.09,69.7,25.82,9.41,5.52,16.63,13.42,21.41,22.88,5.44,10.77,12.01,21.27,15.83,32.53,8.91,26.27,14.35,53.14,9.8,81.44-2.29,14.25-4.07,28.54-8.72,42.18-7.7,22.6-21.7,41.11-38.36,57.98-16.14,16.35-35.25,27.74-56.46,35.79-10.18,3.86-20.18,1.73-30.16-2.28-25.04-10.06-48.7-23.22-73.88-32.86-11.59-4.44-24.28-4.32-36.41-6.57-34.23-6.34-67.68-1.76-100.75,7.19-24.3,6.57-44.38,20.22-61.62,38.39-10.09,10.63-20.5,20.9-35.09,25.51-4.11,1.3-8.18,2.5-12.45,2.83-11.27.88-17.8-5.23-17.48-16.69.23-8.2,2.48-15.91,6.5-23.16,5.34-9.64,10.65-19.31,15.52-29.19,9.66-19.59,6.78-39.27.16-59.05-4.77-14.26-13.27-26.37-23.47-36.66-14.17-14.27-22.98-31.32-31.63-48.98-10.84-22.14-13.58-45.96-17.04-69.74-.36-2.44-.78-4.87-1.09-7.32-3.23-25.83,4.22-47.93,25.27-63.6,10.38-7.72,23.32-11.85,35.69-15.78,16.06-5.09,31.44-12.41,48.19-15.29,15.05-2.59,30.02-5.77,45.4-1.62,4.7,1.27,9.96.41,14.73,1.51,22.63,5.24,44.03,12.74,58.88,32.41,10.04,13.3,10.33,25.7.22,38.71-8.81,11.34-17.58,22.71-26.28,34.13-5.31,6.97-5.15,16.32-9.82,23.5-8.8,13.54-11.37,28.88-11.91,44.33-.99,28.26,10.45,51.08,33.42,67.76,12.1,8.79,24.37,17.55,39.04,14.68l-.02.03ZM1933.58,1044.83c1.5,24.57,7.38,46.99,12.67,69.53,1.52,6.47,4.66,12.05,8.36,17.52,9.82,14.54,21.02,28.03,31.3,42.2,3.92,5.4,8.92,10.24,10.61,17.05.49,1.95.56,4.23,3.04,4.75,1.66.35,2.17-1.25,2.9-2.34,1.5-2.23,1.02-4.12-.72-6.06-4.24-4.75-6.79-10.56-9.87-16.05-4.28-7.63-8.07-15.52-13.11-22.75-14.92-21.43-29.39-43-32.62-70.08-1.19-9.97-.69-19.65-.15-29.52,1-18.24,5.75-33.71,21.88-45.24,16.23-11.6,34.68-17.22,53.09-22.08,15.69-4.14,32.51-4.05,47.94-10.26,2-.81,4.96-.43,4.15-3.85-.62-2.64-2.82-3.15-5.3-3.07-12.33.4-24.68.57-37,1.18-5.84.29-11.77,1.26-16.94,4.12-12.28,6.8-25.88,10.31-38.59,15.96-14.16,6.29-28.65,12.32-35.56,28.07-4.54,10.34-4.59,21.44-6.1,30.93h.02ZM2283.45,1014.2c-5.99-.14-11.52,2.19-17.3,3.04-25.31,3.71-47.58,12.97-63.35,34.49-8,10.92-6.36,20.17,5.32,26.83,8.42,4.8,17.87,7.42,26.06,12.69,1.03.66,2.57.56,3.89.72,2.16.27,4.28.05,4.77-2.52.44-2.31-.96-4.25-3.02-4.65-7.81-1.55-13.29-7.34-20.12-10.7-12.11-5.96-12.68-11.72-5.28-23.01,7.9-12.05,20.31-16.48,32.59-21.32,8.64-3.41,18.06-3.08,27.08-4.68,7.07-1.25,14.23-1.98,21.31-3.19,2.04-.35,4.97-.6,4.78-3.68-.16-2.66-2.72-2.57-4.68-2.8-4.01-.46-8.03-.81-12.05-1.21h0ZM1983.57,1314.17c.4,4.8.68,9.5,5.47,11.81,4.88,2.35,9.27,1.25,13.76-2.05,7.15-5.26,12.95-11.79,18.81-18.27,1.81-2.01,7.02-3.71,4.29-6.82-2.13-2.43-4.58,2.17-6.87,3.66-5.48,3.59-9.89,8.46-14.93,12.55-2.78,2.26-6.61,5.39-10.22,2.03-3.29-3.05-2.88-7.98-.81-11.33,3.16-5.11,5.23-11.02,9.96-15.12,1.4-1.21,2.86-2.69,1.6-4.6-1.71-2.57-3.72-.67-5.21.36-9.8,6.72-12.92,17.21-15.84,27.79h0Z"/>
  <path class="cls-1" d="M2721.48,1538.55c3.19,20,1.17,42.26.48,64.46-.58,18.85-2.81,37.59-9.31,55.61-8.42,23.32-18.08,45.75-39.92,59.96-22.96,14.94-47.19,18.46-72.21,5.56-11.11-5.73-19.17-15.34-27.24-24.76-14.46-16.88-28.2-34.56-47.07-47.01-13.37-8.82-28.19-14.98-42.27-22.52-12.68-6.8-25.03-13.86-36.76-22.41-15.98-11.66-19.82-26.89-18.04-44.99,1.41-14.3,7.26-26.68,15.7-38.2,7.36-10.05,12.7-21.07,13.92-33.89,1.15-12.08-3.04-22.47-8.68-32.54-3.85-6.87-7.89-13.64-12.17-20.24-8.73-13.47-7.98-27.76-3.76-42.24,5.62-19.28,15.17-36.45,28.87-51.2,10.42-11.22,22.49-20.66,33.98-30.71,14.66-12.82,35.75-6.45,47.72,2.94,9.19,7.21,17.32,15.7,27.04,22.29,15.94,10.83,33.98,12.19,52.37,11.51,16.67-.62,33.08-.78,49.38,4.42,9.49,3.03,14.45,9.71,18.69,17.32,5.56,9.97,8.59,20.75,11.43,32.02,6.06,24.05,8.87,48.47,11.83,72.84,2.4,19.8,7.94,39.35,6.02,61.8v-.02ZM2633.34,1717.22c25.46-2.19,41.93-17.52,54.73-37.8,11.41-18.08,13.16-38.94,15.85-59.44.28-2.15,1.61-5.57-2.21-5.89-3.03-.25-4.7,1.9-5.05,5.13-.61,5.56-1.33,11.13-2.34,16.64-4.18,22.69-13.21,43.09-30.6,58.69-9.98,8.96-21.35,15.9-36.03,11.66-3.27-.95-6,.64-6.63,4-.66,3.52.76,6.21,4.89,6.49,2.47.17,4.93.36,7.4.53h-.01ZM2674.4,1404.4c.03-8.32-2.4-16.09-6.32-23.2-4.25-7.72-9.36-15.65-18.46-17.77-13.86-3.23-27.13,1.62-40.23,5.57-3.2.96-3.91,4.5-2.48,7.39,1.34,2.69,3.87,3.52,6.85,1.84,9.87-5.57,20.58-5.07,31.26-3.95,4.85.51,7.67,3.98,10.1,8.08,5.06,8.53,9.37,17.37,12.83,26.66.64,1.71.95,4.59,3.58,4.17,2.73-.43,2.81-3.12,2.87-5.42.03-1.12,0-2.25,0-3.37Z"/>
  <path class="cls-1" d="M2735.84,1040.11c-2.65,43.74.98,87.57-4.93,130.87-3.85,28.22-15.86,53.87-39.73,70.35-13.11,9.05-28.62,15.53-44.46,20.47-16.15,5.03-31.87,5.05-47.79.83-6.7-1.78-13-5.01-19.59-7.29-17.17-5.92-35.1-4.23-52.79-5.02-5.62-.25-11.25-.49-16.82-1.17-7.64-.93-16-9.45-16.41-17.56-.64-12.59,1.83-24.06,11.29-33.83,7.22-7.45,9.91-18.03,14.51-27.27,2.8-5.63,5.06-11.53,7.61-17.29,1.1-2.5,2.06-5,1.63-7.81-2.54-16.46-1.41-33.22-4.41-49.67-1.49-8.16-1.83-16.48-1.37-24.88.79-14.27-3.55-28.01-5.87-41.9-2.32-13.89-3.51-27.7-2.95-41.64.7-17.56,12.11-28.4,25.37-37.69,19.68-13.79,42.34-18.86,65.54-22.85,10.1-1.74,19.75-5.87,30.24-6.02,20.7-.3,41.28.38,61.56,5.18,7.63,1.8,14.9,5.69,18.03,11.95,2.94,5.9,7.13,11.27,9.21,17.48,3.13,9.3,6.31,18.47,6.87,28.68.71,12.93,3.87,25.72,4.25,38.79.17,5.83.67,11.66,1,17.29h0ZM2549.35,1126.26c-2.75,2.87-4.14,5.68-4.91,9.1-4.69,20.81-8.28,42.05-18.61,61.06-4.82,8.86-7.13,18.35-9.8,27.83-1.53,5.43.46,9.46,5.39,11.6,15.09,6.56,30.72,8.22,46.7,3.85,2.47-.68,7.46-.63,6.28-4.18-.74-2.23-4.24-5.82-8.48-5.29-3.79.47-7.57,1.06-11.36,1.54-6.4.82-12.6-.11-18.5-2.59-11.33-4.76-11.89-6.38-6.57-17.34,1.67-3.44,3.55-6.78,5.09-10.27,2.63-5.95,6.57-11.82,7.28-18.03,1.57-13.81,5.98-26.82,9.51-40.04,1.68-6.29,2.68-11.61-2.02-17.24h0Z"/>
  <path class="cls-1" d="M2284.88,2016.65c-42.78-9.47-86.64-12.76-128.48-25.38-27.27-8.23-50.72-24.11-63.25-50.27-6.88-14.37-10.85-30.7-13.25-47.12-2.44-16.74,0-32.27,6.67-47.33,2.81-6.34,6.99-12.05,10.27-18.21,8.54-16.03,9.68-34,13.23-51.35,1.13-5.51,2.25-11.03,3.79-16.43,2.12-7.4,11.84-14.32,19.92-13.45,12.53,1.34,23.48,5.58,31.64,16.45,6.23,8.3,16.25,12.61,24.66,18.61,5.12,3.65,10.59,6.8,15.88,10.23,2.3,1.48,4.62,2.82,7.46,2.83,16.65.07,33.03,3.81,49.75,3.43,8.29-.19,16.56.78,24.79,2.55,13.97,3.02,28.22.88,42.3.77,14.08-.11,27.91.88,41.59,3.61,17.23,3.44,26.15,16.41,33.25,30.96,10.53,21.6,11.99,44.77,12.29,68.31.14,10.25,2.7,20.43,1.21,30.81-2.95,20.49-6.85,40.71-14.77,59.99-2.97,7.25-7.96,13.82-14.63,15.93-6.29,1.98-12.25,5.28-18.71,6.36-9.68,1.63-19.23,3.34-29.4,2.29-12.88-1.33-26.01-.21-38.98-1.88-5.78-.75-11.62-1.17-17.23-1.72h0ZM2229.03,1818.96c-2.4-3.17-4.96-4.98-8.22-6.28-19.82-7.89-40.23-14.77-57.39-27.95-7.99-6.15-17.01-9.92-25.95-14.04-5.12-2.36-9.42-1.03-12.3,3.51-8.84,13.88-12.93,29.05-11.12,45.52.28,2.55-.55,7.47,3.14,6.86,2.32-.38,6.41-3.28,6.55-7.55.13-3.82.14-7.64.26-11.46.19-6.45,2.08-12.43,5.46-17.87,6.48-10.44,8.16-10.74,18.16-3.77,3.14,2.19,6.14,4.57,9.35,6.64,5.46,3.53,10.64,8.34,16.67,10.02,13.39,3.72,25.55,10.11,38.05,15.67,5.95,2.65,11.05,4.47,17.34.71h0Z"/>
  <path class="cls-1" d="M1574.48,926.82c20.39.6,40.75-.38,61.19.71,24.93,1.32,49.48,3.86,73.93,8.87,20.56,4.22,40.44,10.71,60,17.81,24.58,8.92,48.09,20.37,64.84,41.91,9.77,12.56,10.87,28.53,2.61,41.47-2.8,4.38-6.64,7.13-11.45,8.93-17.84,6.69-36.56,7.13-55.22,7.72-31.93,1.01-63.08,6.72-93.54,15.93-14.22,4.3-27.83,10.94-40.05,19.23-18.86,12.81-40.17,18.81-61.33,25.69-14.4,4.69-29,8.21-44.14,8.77-19.27.71-36.43-4.24-49.5-19.59-3.92-4.6-5.74-10.13-7.86-15.52-7.59-19.34-7.84-39.5-6.36-59.84.74-10.09,1.32-20.2,2.01-30.3,1.13-16.64,4.75-32.16,14.56-46.43,10.72-15.59,26.05-20.85,43.2-22.59,15.63-1.58,31.31-3.43,47.1-2.79v.02ZM1702.99,944.91c-3.84-.48-4.76,1.12-3.47,4.7,1.63,4.54,5.77,5.5,9.51,6.55,13.38,3.76,27.16,6.09,40.21,10.97,10.48,3.92,22.32,4.16,31.69,10.85,14.33,10.24,30.01,19.14,38.53,35.72.51.99,1.26,1.87,1.98,2.72,1.46,1.71,3.3,2.49,5.37,1.3,1.83-1.05,1.91-2.77,1.33-4.71-1.35-4.54-2.81-8.93-6.16-12.56-13.85-15.03-29.32-27.7-48.5-35.54-22.76-9.31-46.23-15.94-70.5-20h.01ZM1477.34,1049.24c-.4,6.82,1.42,12.68,3.06,18.49,7.92,27.99,28.42,38.14,52.92,43.76,2.14.49,5.7,1.5,6.18-1.82.32-2.22-2.31-4.11-4.77-5.01-4.43-1.61-8.96-2.98-13.28-4.86-15.46-6.74-27.57-16.75-32.05-33.92-1.48-5.65-2.8-11.35-4.49-16.94-.91-3.02-.23-8.39-4.32-8.07-4.82.37-2.53,5.76-3.25,8.36h0Z"/>
  <path class="cls-1" d="M2495.1,1934.93c-11.44-16.89-24.15-32.83-35.22-50.04-13.51-20.99-25.82-42.39-36.06-65.15-8.61-19.14-14.97-39.06-20.66-59.08-7.14-25.15-11.61-50.92-3.94-77.1,4.47-15.27,16.78-25.51,32.11-26.38,5.19-.29,9.67,1.21,13.94,4.06,15.86,10.56,27.17,25.48,38.56,40.27,19.5,25.31,42.35,47.23,67.64,66.54,11.81,9.02,25.15,16.17,39.03,21.23,21.42,7.8,38.76,21.58,56.71,34.71,12.23,8.94,23.62,18.72,32.93,30.67,11.85,15.21,17.87,32.03,13.07,51.61-1.44,5.87-4.86,10.58-7.99,15.45-11.25,17.47-27.45,29.47-44.81,40.16-8.62,5.3-17.16,10.75-25.75,16.1-14.16,8.82-28.86,14.96-46.17,15.35-18.92.43-32.15-8.93-43.59-21.82-10.43-11.75-21.1-23.39-29.82-36.57v-.02ZM2434.6,1820.12c1.86,3.4,3.69,3.21,5.84.06,2.73-3.98,1.09-7.9-.25-11.54-4.78-13.05-10.95-25.59-14.63-39.03-2.95-10.79-9.68-20.54-9.74-32.05-.08-17.61-2.03-35.54,6.43-52.15.5-.99.78-2.12,1.05-3.2.53-2.18.09-4.13-2.09-5.12-1.92-.87-3.36.07-4.6,1.68-2.89,3.75-5.6,7.5-6.58,12.34-4.09,20.03-5.31,39.98-.45,60.13,5.76,23.91,14.12,46.82,25.02,68.88h0ZM2651.22,1942.09c5.77-3.67,9.45-8.57,13.21-13.3,18.07-22.8,14.31-45.36,4.53-68.52-.85-2.02-2.12-5.5-5.09-3.95-1.99,1.04-1.98,4.28-1.27,6.8,1.29,4.53,2.82,9.01,3.83,13.61,3.58,16.48,2.54,32.16-8.76,45.84-3.72,4.51-7.57,8.91-11.11,13.55-1.92,2.5-6.67,5.09-4.02,8.22,3.12,3.69,6.15-1.32,8.68-2.25h0Z"/>
</svg>